<?xml version="1.0" standalone="no"?>
<!DOCTYPE svg PUBLIC "-//W3C//DTD SVG 20010904//EN"
 "http://www.w3.org/TR/2001/REC-SVG-20010904/DTD/svg10.dtd">
<svg version="1.0" xmlns="http://www.w3.org/2000/svg"
 width="32.000000pt" height="32.000000pt" viewBox="0 0 32.000000 32.000000"
 preserveAspectRatio="xMidYMid meet">

<g transform="translate(0.000000,32.000000) scale(0.100000,-0.100000)"
fill="#000000" stroke="none">
<path d="M82 304 c-55 -28 -77 -69 -77 -145 0 -56 4 -71 27 -101 16 -21 43
-42 64 -48 48 -16 129 -8 162 17 82 60 83 206 1 264 -43 30 -130 37 -177 13z
m68 -148 c0 -29 19 -46 21 -19 1 17 2 17 6 0 5 -18 -22 -57 -38 -57 -19 0 -30
40 -17 63 7 12 11 25 10 30 -1 4 3 7 8 7 6 0 10 -11 10 -24z m-20 -86 c0 -5
-4 -10 -10 -10 -5 0 -10 5 -10 10 0 6 5 10 10 10 6 0 10 -4 10 -10z"/>
</g>
</svg>
