<svg xmlns="http://www.w3.org/2000/svg" width="256" height="256" viewBox="0 0 100 100"><rect width="100" height="100" rx="20" fill="#222434"></rect><path fill="#fff" d="M50.75 86.05L50.75 86.05Q44.99 86.05 39.95 84.33Q34.91 82.63 31.22 79.52Q27.53 76.41 25.73 72.27L25.73 72.27Q24.92 70.66 25.68 69.30Q26.45 67.95 28.25 67.50L28.25 67.50Q29.69 67.14 30.99 67.86Q32.30 68.58 33.02 70.02L33.02 70.02Q34.28 72.45 36.84 74.48Q39.41 76.50 42.96 77.63Q46.52 78.75 50.75 78.75L50.75 78.75Q55.34 78.75 59.03 77.27Q62.72 75.78 64.88 72.91Q67.04 70.02 67.04 65.88L67.04 65.88Q67.04 60.66 63.08 56.75Q59.12 52.83 50.48 51.84L50.48 51.84Q39.77 50.67 33.69 45.32Q27.62 39.96 27.62 32.13L27.62 32.13Q27.62 26.55 30.68 22.46Q33.74 18.36 39.05 16.16Q44.36 13.95 51.11 13.95L51.11 13.95Q56.24 13.95 60.33 15.53Q64.43 17.11 67.44 19.72Q70.46 22.32 72.44 25.56L72.44 25.56Q73.52 27.18 73.20 28.67Q72.89 30.16 71.54 30.96L71.54 30.96Q70.10 31.77 68.52 31.28Q66.95 30.78 66.14 29.34L66.14 29.34Q64.70 27.09 62.67 25.25Q60.65 23.41 57.81 22.37Q54.98 21.34 51.02 21.24L51.02 21.24Q44.00 21.24 39.63 24.08Q35.27 26.91 35.27 32.59L35.27 32.59Q35.27 35.46 36.80 38.03Q38.33 40.59 42.06 42.39Q45.80 44.20 52.37 45.09L52.37 45.09Q63.44 46.53 69.06 51.84Q74.69 57.16 74.69 65.80L74.69 65.80Q74.69 70.75 72.80 74.52Q70.91 78.30 67.62 80.87Q64.34 83.44 59.97 84.74Q55.61 86.05 50.75 86.05Z"></path></svg>