<?xml version="1.0" standalone="no"?>
<!DOCTYPE svg PUBLIC "-//W3C//DTD SVG 20010904//EN"
 "http://www.w3.org/TR/2001/REC-SVG-20010904/DTD/svg10.dtd">
<svg version="1.0" xmlns="http://www.w3.org/2000/svg"
 width="429.000000pt" height="429.000000pt" viewBox="0 0 429.000000 429.000000"
 preserveAspectRatio="xMidYMid meet">
<metadata>
Created by potrace 1.14, written by Peter Selinger 2001-2017
</metadata>
<g transform="translate(0.000000,429.000000) scale(0.100000,-0.100000)"
fill="#000000" stroke="none">
<path d="M0 2145 l0 -2145 2145 0 2145 0 -4 813 c-2 446 -6 826 -9 842 -3 17
-6 35 -6 41 -1 13 -31 27 -39 19 -3 -3 3 -12 14 -19 10 -8 17 -17 14 -19 -3
-3 -36 23 -74 58 -45 41 -64 64 -55 68 10 4 9 6 -3 6 -25 1 -22 18 4 32 19 10
25 8 45 -17 13 -16 32 -39 42 -51 10 -12 18 -23 17 -25 -1 -2 11 -15 26 -30
l28 -27 0 284 0 285 -24 6 c-14 3 -29 4 -33 1 -5 -3 -28 -1 -53 5 -25 5 -63
12 -85 16 l-40 7 -3 103 c-1 56 2 102 6 102 5 0 17 -7 28 -15 31 -23 40 -17
14 10 -28 30 -19 33 19 6 18 -13 32 -17 42 -11 11 8 10 12 -8 25 -13 9 -23 22
-23 30 0 8 -8 19 -17 24 -17 10 -17 10 1 11 19 0 19 0 0 21 -15 17 -18 33 -16
78 2 31 9 61 15 68 7 6 32 13 57 15 l45 3 27 -80 c15 -44 28 -96 29 -115 1
-33 2 -33 9 10 4 25 8 420 9 878 l2 832 -2145 0 -2146 0 0 -2145z m3820 2075
c-9 -6 -11 -13 -5 -17 6 -5 15 -17 21 -28 6 -11 25 -24 42 -30 18 -5 32 -15
32 -22 0 -7 7 -13 15 -13 9 0 21 -11 27 -25 7 -15 17 -24 25 -21 8 4 13 -2 13
-15 0 -19 -5 -17 -41 15 -34 31 -43 35 -56 24 -13 -10 -18 -8 -34 12 -11 14
-33 39 -49 57 -42 43 -40 73 4 73 17 0 18 -2 6 -10z m295 -90 c3 -6 -1 -7 -9
-4 -18 7 -21 14 -7 14 6 0 13 -4 16 -10z m-204 -77 c13 -16 12 -17 -3 -4 -17
13 -22 21 -14 21 2 0 10 -8 17 -17z m70 -60 l34 -37 -42 33 c-24 18 -43 35
-43 37 0 13 20 0 51 -33z m44 27 c3 -5 2 -10 -4 -10 -5 0 -13 5 -16 10 -3 6
-2 10 4 10 5 0 13 -4 16 -10z m80 -10 c3 -6 -1 -7 -9 -4 -18 7 -21 14 -7 14 6
0 13 -4 16 -10z m0 -77 l18 -28 -21 19 c-12 11 -22 23 -22 28 0 14 7 9 25 -19z
m-64 0 c13 -16 12 -17 -3 -4 -17 13 -22 21 -14 21 2 0 10 -8 17 -17z m74 -73
c10 -11 16 -20 13 -20 -3 0 -13 9 -23 20 -10 11 -16 20 -13 20 3 0 13 -9 23
-20z m-1147 -59 c9 -5 28 -14 42 -20 52 -25 80 -42 80 -52 0 -6 -7 -6 -20 1
-10 6 -23 9 -27 8 -9 -2 -80 30 -100 45 -7 5 -10 13 -7 18 7 11 10 11 32 0z
m368 -7 c18 -14 18 -14 -6 -3 -31 14 -36 19 -24 19 6 0 19 -7 30 -16z m518
-250 c3 -8 2 -12 -4 -9 -6 3 -10 10 -10 16 0 14 7 11 14 -7z m-2297 -96 c-3
-7 -5 -2 -5 12 0 14 2 19 5 13 2 -7 2 -19 0 -25z m10 -40 c-3 -8 -6 -5 -6 6
-1 11 2 17 5 13 3 -3 4 -12 1 -19z m1077 -155 c-3 -32 -9 -62 -14 -66 -4 -5
-5 3 -3 17 3 15 1 26 -5 26 -6 0 -13 -19 -16 -42 -12 -89 -13 -91 -15 -18 -1
59 3 82 19 108 29 48 40 40 34 -25z m38 -15 c2 -30 2 -31 -22 -193 -11 -77
-20 -144 -20 -149 0 -5 -2 -7 -5 -5 -2 3 2 77 10 164 8 88 15 170 15 183 0 12
5 22 10 22 6 0 11 -10 12 -22z m763 -68 c0 -7 -6 -15 -12 -17 -8 -3 -13 4 -13
17 0 13 5 20 13 18 6 -3 12 -11 12 -18z m-485 -304 c0 -77 -3 -136 -7 -133
-14 15 -29 211 -19 255 16 72 26 27 26 -122z m-1061 -76 c6 -28 14 -75 17
-105 4 -31 11 -58 15 -61 11 -7 12 -74 1 -74 -7 0 -70 71 -85 97 -9 14 23 193
34 193 4 0 12 -23 18 -50z m118 -67 c-3 -10 -5 -4 -5 12 0 17 2 24 5 18 2 -7
2 -21 0 -30z m909 -156 c6 -66 4 -80 -11 -97 -24 -27 -43 -25 -39 3 22 157 28
187 35 180 5 -5 12 -44 15 -86z m43 -6 c1 -61 -5 -49 -12 24 -4 38 -3 53 3 40
5 -11 9 -40 9 -64z m-949 43 c0 -8 -4 -12 -10 -9 -5 3 -10 10 -10 16 0 5 5 9
10 9 6 0 10 -7 10 -16z m221 -144 c5 -19 6 -56 2 -82 -5 -40 -9 -48 -27 -48
-11 0 -31 8 -44 18 l-23 18 25 76 c14 42 26 87 26 100 1 19 3 18 17 -12 8 -19
19 -51 24 -70z m-247 68 c-8 -27 -12 -33 -19 -27 -7 8 7 49 17 49 5 0 6 -10 2
-22z m-339 2 c-4 -6 6 -10 22 -10 16 0 37 -6 47 -13 14 -10 15 -17 7 -40 -17
-45 -13 -55 7 -17 14 28 23 35 47 35 43 1 133 -46 183 -95 l44 -43 -7 -55 c-4
-30 -8 -60 -9 -66 -1 -6 4 4 12 22 16 36 32 42 32 13 0 -11 6 -21 12 -23 8 -3
2 -14 -16 -31 -34 -32 -63 -34 -188 -12 -163 29 -229 65 -290 159 -31 48 -38
68 -38 108 0 55 2 56 83 68 28 4 53 8 55 9 2 0 0 -3 -3 -9z m2075 -25 c0 -5
-5 -3 -10 5 -5 8 -10 20 -10 25 0 6 5 3 10 -5 5 -8 10 -19 10 -25z m204 -58
c13 -40 27 -85 31 -102 6 -29 6 -29 -9 -10 -12 15 -15 16 -16 5 0 -19 -53 82
-69 132 -10 30 -10 40 1 52 20 21 33 4 62 -77z m-3504 59 c0 -3 -4 -8 -10 -11
-5 -3 -10 -1 -10 4 0 6 5 11 10 11 6 0 10 -2 10 -4z m2290 -172 c0 -6 -22 -21
-50 -32 -27 -12 -50 -17 -50 -13 0 7 32 104 46 141 4 10 14 -2 30 -35 13 -27
23 -55 24 -61z m201 -11 l1 -48 13 30 c14 30 14 30 15 4 1 -85 -105 -232 -177
-245 -42 -8 -171 29 -180 52 -7 18 27 70 74 115 60 57 194 133 241 138 8 1 12
-15 13 -46z m951 -38 c-4 -5 -9 1 -13 15 -12 42 -9 57 5 25 7 -16 11 -34 8
-40z m-1365 -56 c-8 -58 -45 -77 -71 -37 -8 13 -6 22 8 37 11 12 25 21 33 21
7 0 13 5 13 10 0 6 5 10 11 10 8 0 10 -14 6 -41z m1383 25 c0 -8 -4 -12 -10
-9 -5 3 -10 10 -10 16 0 5 5 9 10 9 6 0 10 -7 10 -16z m-1512 -159 c12 -9 27
-15 34 -14 7 1 25 -1 41 -5 24 -7 27 -13 27 -51 0 -24 -5 -45 -11 -47 -8 -3
-4 -60 12 -191 26 -219 26 -217 -64 -225 -57 -4 -76 6 -112 63 -17 27 11 215
33 215 8 0 10 5 5 13 -4 6 -8 36 -9 65 -1 40 2 52 13 52 13 0 13 3 2 16 -17
21 -23 64 -9 64 6 0 20 -5 31 -10 29 -16 24 8 -8 42 -29 30 -21 37 15 13z
m-548 -20 c9 -8 40 -18 69 -22 59 -9 56 -6 96 -106 15 -37 37 -74 48 -82 19
-13 19 -16 5 -32 -9 -10 -25 -36 -36 -58 l-20 -41 41 -67 c23 -36 56 -90 72
-119 34 -60 84 -98 128 -98 17 0 44 12 68 31 21 17 43 28 48 25 18 -11 116 16
150 41 31 24 33 28 26 67 -39 237 -39 239 2 293 60 82 94 65 92 -46 -2 -109
-10 -137 -37 -134 -21 3 -22 -1 -22 -58 0 -34 -5 -79 -12 -100 -6 -22 -8 -42
-5 -46 11 -10 50 15 75 50 l24 32 -7 -45 c-4 -25 -11 -49 -15 -55 -4 -5 -11
-24 -14 -42 -9 -38 -20 -43 -80 -38 -55 6 -59 -7 -18 -56 17 -21 21 -31 11
-27 -13 5 -16 2 -12 -13 5 -19 -44 -81 -182 -229 -75 -81 -156 -175 -225 -260
-103 -127 -168 -186 -226 -206 -53 -18 -57 -18 -105 -1 -59 21 -183 94 -254
149 -55 43 -155 150 -174 186 -10 19 -9 22 9 22 23 0 46 40 37 64 -4 9 -18 21
-31 28 -32 14 -56 -3 -56 -40 0 -25 0 -25 -20 -7 -23 20 -98 151 -117 202 -10
27 -9 34 9 50 47 42 62 121 34 175 -11 20 -11 28 -3 32 12 5 -4 22 -62 67 -33
26 -19 36 16 12 51 -36 57 -38 50 -19 -8 19 22 69 57 98 30 24 80 31 142 18
31 -7 58 -10 60 -7 3 2 2 23 -2 47 -5 30 -18 53 -44 79 -23 23 -41 54 -50 84
-12 44 -11 53 6 94 27 66 53 81 169 98 198 28 262 31 285 10z m2231 -138 c-5
-5 -17 -4 -28 2 -17 10 -17 10 1 11 19 0 18 1 -2 23 -12 13 -22 27 -22 33 0 5
13 -7 30 -26 17 -20 26 -38 21 -43z m69 -77 c0 -5 -5 -12 -10 -15 -14 -9 -42
14 -33 28 4 6 0 8 -10 4 -12 -5 -15 0 -12 21 1 15 3 29 4 32 2 7 61 -60 61
-70z m-1370 24 c0 -37 -21 -114 -31 -114 -12 0 -11 57 2 103 11 42 29 49 29
11z m-2105 -178 c19 -37 19 -46 -1 -46 -9 0 -12 5 -8 12 5 8 2 9 -10 5 -17 -7
-21 -1 -44 70 l-10 32 29 -22 c16 -12 36 -34 44 -51z m535 44 c0 -5 -2 -10 -4
-10 -3 0 -8 5 -11 10 -3 6 -1 10 4 10 6 0 11 -4 11 -10z m-10 -35 c7 -8 8 -15
2 -15 -5 0 -15 7 -22 15 -7 8 -8 15 -2 15 5 0 15 -7 22 -15z m-5 -43 c-3 -3
-11 0 -18 7 -9 10 -8 11 6 5 10 -3 15 -9 12 -12z m-4 -29 c13 -15 12 -15 -8
-4 -24 12 -29 21 -14 21 5 0 15 -7 22 -17z m-6 -29 c24 -16 33 -34 18 -34 -5
0 -21 11 -38 25 -33 27 -18 34 20 9z m-24 -81 c13 -16 12 -17 -3 -4 -10 7 -18
15 -18 17 0 8 8 3 21 -13z m1419 -128 c14 -16 10 -18 -14 -9 -9 3 -16 10 -16
15 0 14 16 11 30 -6z m-1699 -182 c99 -190 118 -224 140 -251 10 -13 16 -29
13 -37 -7 -17 -41 -26 -48 -11 -4 6 -15 25 -26 41 -10 17 -33 57 -50 90 -18
33 -36 64 -40 69 -5 5 -6 22 -3 37 5 29 -11 42 -20 17 -2 -7 -7 2 -11 20 -4
17 -12 32 -17 32 -5 0 -9 5 -9 10 0 6 7 10 15 10 9 0 0 14 -23 35 -20 19 -31
35 -24 35 7 0 10 5 6 11 -5 9 10 28 23 29 1 0 34 -62 74 -137z m142 -393 c-3
-11 -7 -20 -9 -20 -2 0 -4 9 -4 20 0 11 4 20 9 20 5 0 7 -9 4 -20z m19 -113
c-1 -5 1 -6 6 -3 13 8 78 -65 85 -97 7 -26 6 -26 -25 -21 -66 12 -107 31 -128
57 l-22 28 21 44 21 45 23 -23 c12 -12 21 -26 19 -30z m162 1 c9 -13 14 -16
10 -8 -5 10 1 8 16 -5 13 -11 29 -23 35 -27 83 -58 112 -158 89 -300 -6 -35
-9 -38 -38 -38 -18 0 -38 6 -45 13 -12 10 -13 8 -7 -8 6 -16 5 -18 -5 -7 -7 6
-18 12 -23 12 -6 -1 0 -10 13 -21 29 -24 61 -81 61 -109 0 -20 -27 -26 -84
-20 -24 2 -16 -24 10 -28 10 -2 28 -18 40 -36 l21 -33 -26 -10 c-96 -40 -162
-50 -145 -21 4 7 2 8 -4 4 -17 -10 -57 51 -53 82 1 15 6 32 11 37 4 6 11 25
15 43 4 18 13 32 21 32 8 0 14 9 14 20 0 11 4 20 8 20 11 0 34 64 23 68 -14 5
10 72 26 72 11 0 12 19 7 98 -3 53 -8 106 -9 117 -2 11 -4 23 -4 28 -1 4 -16
7 -35 7 -38 0 -57 17 -35 31 27 17 76 10 93 -13z m196 -64 c0 -8 5 -14 12 -14
6 0 34 -24 63 -53 36 -37 71 -60 114 -77 33 -14 61 -29 61 -34 0 -6 7 -1 15
10 18 24 19 10 1 -40 -8 -24 -16 -34 -21 -26 -4 6 -16 10 -26 7 -11 -3 -19 0
-19 6 0 9 -2 9 -8 1 -4 -6 -17 -14 -29 -18 -19 -6 -21 -12 -17 -48 5 -40 45
-103 58 -91 3 4 6 2 6 -3 -1 -19 -164 -114 -195 -114 -12 0 -26 -5 -33 -12 -9
-9 -12 -9 -12 0 0 12 11 23 44 46 19 13 19 14 -2 67 -17 44 -22 77 -23 173 -1
125 -9 164 -41 206 -20 25 -20 25 4 31 29 7 48 1 48 -17z m-388 -101 c38 -37
79 -72 91 -78 21 -9 22 -13 11 -55 -7 -25 -13 -39 -13 -32 -1 6 -8 12 -15 12
-8 0 -27 16 -43 36 -15 20 -49 59 -75 86 -45 46 -58 75 -41 91 10 11 12 10 85
-60z m633 27 c3 -6 -1 -10 -9 -10 -9 0 -16 5 -16 10 0 6 -3 9 -7 9 -5 -1 -17
-1 -28 1 l-20 1 20 8 c20 9 49 -1 60 -19z m317 -19 c-16 -16 -32 -36 -33 -46
-6 -30 -24 -27 -37 7 -12 32 -7 53 6 30 6 -8 16 -4 34 13 15 14 32 25 38 25 5
0 10 6 11 13 0 9 2 8 6 -1 3 -8 -8 -26 -25 -41z m-212 -23 c0 -5 7 -2 16 6 8
9 24 16 34 16 10 0 26 -7 34 -16 12 -12 16 -12 16 -2 0 10 3 9 10 -2 16 -26
11 -37 -14 -33 -17 4 -27 -1 -36 -16 -9 -18 -7 -25 16 -47 19 -20 23 -29 13
-35 -7 -4 -17 -5 -21 -3 -4 3 -8 -2 -8 -11 0 -9 -4 -13 -10 -10 -5 3 -10 2
-10 -3 0 -5 -11 -14 -25 -20 -21 -10 -25 -9 -26 6 -1 9 -1 20 0 24 0 4 -3 29
-8 55 -22 111 -22 111 -1 106 11 -3 20 -10 20 -15z m-850 -77 c7 -14 7 -20 -2
-23 -6 -2 0 -15 15 -30 14 -14 23 -28 20 -31 -10 -11 -63 54 -63 78 0 30 15
33 30 6z m163 -193 c4 14 5 13 6 -3 2 -39 -13 -43 -39 -11 l-25 31 27 -17 c25
-17 27 -17 31 0z m-30 -78 c3 -11 2 -20 -3 -20 -4 0 -10 9 -13 20 -3 11 -2 20
3 20 4 0 10 -9 13 -20z"/>
<path d="M1873 2363 c-7 -2 -13 -18 -13 -33 0 -17 -7 -33 -17 -39 -14 -8 -15
-12 -4 -25 34 -41 84 -5 79 58 -3 40 -16 52 -45 39z"/>
<path d="M2766 2251 c-3 -5 -3 -17 1 -27 4 -11 0 -22 -11 -30 -22 -16 -12 -34
18 -34 32 0 58 32 54 67 -2 22 -9 29 -30 31 -14 2 -29 -1 -32 -7z"/>
<path d="M1596 1506 c5 -21 3 -23 -20 -19 -26 5 -31 -4 -28 -56 0 -8 -14 -25
-31 -40 -66 -54 -87 -82 -87 -117 0 -24 4 -34 16 -34 9 0 29 -9 45 -21 64 -45
305 -114 285 -80 -4 6 -19 11 -33 11 -23 0 -79 20 -113 41 -8 5 -22 12 -30 15
-52 20 -60 25 -59 41 1 16 2 16 6 1 6 -22 28 -29 55 -17 l23 10 -22 -5 c-13
-2 -23 -1 -23 4 0 10 72 22 138 22 l53 0 -37 20 c-22 11 -49 18 -66 16 -15 -3
-28 -1 -28 4 0 4 -12 8 -27 9 l-28 0 25 10 c17 7 26 7 28 0 2 -6 8 -11 14 -11
6 0 8 6 5 14 -4 11 10 18 56 30 l62 15 -58 -5 c-31 -3 -87 -14 -125 -25 -82
-23 -89 -24 -69 -1 8 9 19 29 22 45 4 15 13 27 20 27 7 0 15 7 19 15 3 8 14
15 24 15 27 0 34 11 15 25 -13 9 -13 14 -3 20 8 5 11 4 7 -2 -8 -12 13 -23 35
-19 8 1 27 11 42 23 l27 22 -33 5 c-108 18 -109 18 -102 -8z m29 -216 c8 -13
-5 -13 -25 0 -13 8 -13 10 2 10 9 0 20 -4 23 -10z"/>
<path d="M1995 1424 c-27 -8 -75 -20 -105 -26 -58 -11 -91 -28 -40 -20 46 7
319 -30 409 -55 10 -2 2 -15 -24 -38 -24 -23 -32 -35 -22 -35 11 0 15 -6 11
-17 -13 -41 -28 -63 -43 -63 -11 0 -12 -3 -4 -11 9 -9 19 -6 42 10 40 29 136
148 103 127 -29 -18 -8 21 28 51 26 23 40 43 40 59 0 27 -11 29 -72 15 -25 -6
-64 -4 -115 5 -98 17 -145 17 -208 -2z"/>
<path d="M1666 1243 c-6 -14 -5 -15 5 -6 7 7 10 15 7 18 -3 3 -9 -2 -12 -12z"/>
<path d="M1247 1234 c-4 -4 -7 -19 -7 -34 0 -19 7 -30 27 -39 24 -11 29 -10
44 10 24 32 11 63 -27 67 -17 2 -33 0 -37 -4z"/>
<path d="M2049 1035 c-13 -12 -223 -24 -271 -15 -28 6 -53 8 -56 6 -7 -7 80
-97 109 -112 16 -8 39 -14 53 -14 47 0 137 48 226 119 l25 21 -41 0 c-22 0
-43 -2 -45 -5z"/>
<path d="M860 1149 c0 -5 5 -7 10 -4 6 3 10 8 10 11 0 2 -4 4 -10 4 -5 0 -10
-5 -10 -11z"/>
<path d="M1025 460 c3 -5 8 -10 11 -10 2 0 4 5 4 10 0 6 -5 10 -11 10 -5 0 -7
-4 -4 -10z"/>
<path d="M4155 1790 c-3 -5 -1 -10 6 -10 6 0 18 -8 25 -17 11 -15 13 -16 14
-2 0 28 -32 49 -45 29z"/>
</g>
</svg>
